<?xml version='1.0' encoding='utf-8'?>
<svg xmlns:xlink="http://www.w3.org/1999/xlink" xmlns="http://www.w3.org/2000/svg" viewBox="0 0 174.11 137.17"> <defs> <linearGradient id="a"> <stop stop-color="#fff" offset="0"/> <stop stop-color="#fff" stop-opacity=".07843" offset=".60111"/> <stop stop-color="#fff" stop-opacity="0" offset="1"/> </linearGradient> <linearGradient id="b"> <stop stop-opacity=".31638" offset="0"/> <stop stop-opacity=".0791" offset=".5"/> <stop stop-opacity="0" offset="1"/> </linearGradient> <linearGradient id="d"> <stop stop-color="#fff" stop-opacity=".78431" offset="0"/> <stop stop-color="#900" stop-opacity="0" offset=".81"/> <stop stop-color="#fff" stop-opacity="0" offset="1"/> </linearGradient> <linearGradient id="c"> <stop stop-opacity="0" offset="0"/> <stop stop-opacity=".11299" offset=".5"/> <stop stop-opacity="0" offset="1"/> </linearGradient> <linearGradient id="e"> <stop stop-color="#884631" offset="0"/> <stop stop-color="#df421e" offset=".625"/> <stop stop-color="#efa08e" offset=".8125"/> <stop stop-color="#fff" offset="1"/> </linearGradient> <linearGradient id="w" x1="43.299" x2="174.69" y1="21.353" y2="120.91" gradientUnits="userSpaceOnUse" xlink:href="#a"/> <linearGradient id="v" x1="23.492" x2="53.035" y1="96.371" y2="130.38" gradientUnits="userSpaceOnUse" xlink:href="#c"/> <linearGradient id="u" x1="80.261" x2="5.4199" y1="117.44" y2="71.83" gradientUnits="userSpaceOnUse" xlink:href="#a"/> <linearGradient id="t" x1="68.265" x2="28.057" y1="370.91" y2="332.33" gradientTransform="scale(1.1339 .88188)" gradientUnits="userSpaceOnUse" xlink:href="#e"/> <linearGradient id="s" x1="104.84" x2="28.429" y1="321.4" y2="277.92" gradientTransform="scale(.94664 1.0564)" gradientUnits="userSpaceOnUse" xlink:href="#b"/> <linearGradient id="r" x1="78.754" x2="26.172" y1="397.89" y2="351.2" gradientTransform="scale(1.1845 .84423)" gradientUnits="userSpaceOnUse" xlink:href="#e"/> <linearGradient id="q" x1="27.39" x2="41.984" gradientUnits="userSpaceOnUse" xlink:href="#b"/> <linearGradient id="p" x1="49.628" x2="68.692" y1="396.8" y2="424.2" gradientTransform="scale(1.2337 .81054)" gradientUnits="userSpaceOnUse" xlink:href="#d"/> <linearGradient id="o" x1="76.441" x2="99.764" y1="246.53" y2="262.38" gradientTransform="scale(.78957 1.2665)" gradientUnits="userSpaceOnUse" xlink:href="#a"/> <linearGradient id="n" x1="101.15" x2="83.71" y1="378.21" y2="352.44" gradientTransform="scale(1.1685,.8558)" gradientUnits="userSpaceOnUse" xlink:href="#a"/> <linearGradient id="m" x1="48.354" x2="51.659" y1="99.758" y2="103.12" gradientTransform="scale(.91752,1.0899)" gradientUnits="userSpaceOnUse" xlink:href="#a"/> <linearGradient id="l" x1="23.058" x2="21.62" y1="411.51" y2="422.44" gradientTransform="scale(1.089 .9183)" gradientUnits="userSpaceOnUse" xlink:href="#a"/> <linearGradient id="k" x1="40.424" x2="33.566" y1="385.04" y2="389.48" gradientUnits="userSpaceOnUse" xlink:href="#a"/> <linearGradient id="j" x1="27.254" x2="21.609" y1="436.19" y2="441.87" gradientTransform="scale(1.1213 .8918)" gradientUnits="userSpaceOnUse" xlink:href="#c"/> <radialGradient id="i" cx="42.007" cy="39.008" r="9.8528" fx="37.805" fy="39.24" gradientUnits="userSpaceOnUse"> <stop stop-opacity=".40678" offset="0"/> <stop stop-opacity=".07345" offset=".64778"/> <stop stop-opacity="0" offset="1"/> </radialGradient> <radialGradient id="h" cx="41.876" cy="37.866" r="12.563" fx="34.829" fy="31.584" gradientUnits="userSpaceOnUse" xlink:href="#b"/> <radialGradient id="g" cx="41.876" cy="37.866" r="12.563" fx="46.385" fy="37.08" gradientUnits="userSpaceOnUse" xlink:href="#b"/> <radialGradient id="f" cx="58.376" cy="22.775" r="10.998" fx="53.432" fy="22.164" gradientUnits="userSpaceOnUse" xlink:href="#d"/> </defs> <g transform="translate(2.7688 -19.321)" fill-rule="evenodd"> <path d="m75.949 20.745-14.629 24.217c-3.8991 6.4544-3.8307 35.252-2.6724 36.423l2.7609 2.7918c1.2279 1.2417 21.875-4.8114 30.816-11.739l24.925-19.312c4.1847-3.2423-6.5691-17.551-13.471-22.842s-24.727-14.51-27.73-9.5397z" fill="url(#w)"/> <path transform="matrix(6.9294 0 0 3.0849 -205.89 .92725)" d="m54.439 37.866c0 6.9382-5.6246 12.563-12.563 12.563s-12.563-5.6246-12.563-12.563 5.6246-12.563 12.563-12.563 12.563 5.6246 12.563 12.563z" fill="url(#i)"/> <path transform="matrix(4.0744 0 0 1.5417 -73.117 66.55)" d="m54.439 37.866c0 6.9382-5.6246 12.563-12.563 12.563s-12.563-5.6246-12.563-12.563 5.6246-12.563 12.563-12.563 12.563 5.6246 12.563 12.563z" fill="url(#h)"/> <path transform="matrix(4.3313 0 0 1.248 -125.85 73.058)" d="m54.439 37.866c0 6.9382-5.6246 12.563-12.563 12.563s-12.563-5.6246-12.563-12.563 5.6246-12.563 12.563-12.563 12.563 5.6246 12.563 12.563z" fill="url(#g)"/> <path transform="matrix(3.8566 0 0 1.6026 -116.35 82.229)" d="m69.374 22.775c0 6.0742-4.9241 10.998-10.998 10.998s-10.998-4.9241-10.998-10.998 4.9241-10.998 10.998-10.998 10.998 4.9241 10.998 10.998z" fill="url(#f)"/> <path transform="translate(-1.0893 -10.893)" d="m62.489 94.742-22.136 28.758 0.89716 3.6445 8.3713 13.386c4.3448 6.9476-17.234-3.96-23.102-8.4034s-18.992-20.695-12.108-18.257l20.262 7.1771 24.678-29.478 3.1384 3.1725z" fill="url(#v)"/> <path d="m61.354 84.205-22.136 28.758 0.89716 3.6445 8.3713 13.386c4.3448 6.9476-17.234-3.96-23.102-8.4034s-18.992-20.695-12.108-18.257l20.262 7.1771 24.678-29.478 3.1384 3.1725z" fill="url(#u)"/> <path transform="matrix(.99649 .08373 -.08373 .99649 29.608 -274.21)" d="m59.567 346.7-0.65214-15.977c-0.19265-4.72-0.24188-13.965 4.8515-13.965 5.5336 0 12.157-2.4147 19.983-2.4147s18.842 5.906 18.842 5.906l-18.243 17.973s-17.934 10.76-21.194 10.108-3.5868-1.6303-3.5868-1.6303z" fill="url(#t)"/> <path transform="matrix(.99649 .08373 -.08373 .99649 29.608 -274.21)" d="m71.268 290.12-13.043 25.107c-3.4762 6.6917-1.5573 35.425-0.32607 36.52l2.9346 2.6086c1.3052 1.1602 21.608-6.1095 29.998-13.695l23.803-21.521c3.9268-3.5503-7.4452-16.684-14.673-21.521s-26.017-12.652-28.694-7.4996z" fill="url(#s)"/> <path transform="matrix(.99649 .08373 -.08373 .99649 29.608 -274.21)" d="m59.855 348.81-0.65214-15.977c-0.19265-4.72-0.05083-17.233 4.8515-13.965 4.8419 3.2279 7.5459 4.7328 15.372 4.7328s28.065-7.9279 24.376-1.7027l-19.166 18.434s-17.934 10.76-21.194 10.108-3.5868-1.6303-3.5868-1.6303z" fill="url(#r)"/> <path transform="matrix(2.407 1.7813 -1.4964 1.6759 24.743 -36.998)" d="m41.984 7.7582c0 1.577-3.267 2.8553-7.2969 2.8553s-7.2969-1.2784-7.2969-2.8553 3.267-2.8553 7.2969-2.8553 7.2969 1.2784 7.2969 2.8553z" fill="url(#q)"/> <path transform="matrix(.99649 .08373 -.08373 .99649 29.608 -274.21)" d="m61.361 339.43v-13.834s0.46113-4.1502 5.0724-2.3056 10.606 7.3781 17.062 3.689 4.1502 9.2226-3.2279 11.528-18.906 0.92226-18.906 0.92226z" fill="url(#p)"/> <path transform="matrix(.99649 .08373 -.08373 .99649 29.608 -274.21)" d="m70.583 301.16s-6.4558 7.8392-8.3004 15.678-2.7668 27.207-0.92226 28.59 29.973-33.201 26.284-33.201-17.062-11.067-17.062-11.067z" fill="url(#o)"/> <path transform="matrix(.99649 .08373 -.08373 .99649 29.608 -274.21)" d="m100.1 301.94c2.7548 1.3051 16.663 12.768 12.223 16.451-4.2168 3.4977-21.681-10.93-22.691-12.837s7.7136-4.9192 10.468-3.6141z" fill="url(#n)"/> <path transform="translate(-1.0893 -10.893)" d="m35.035 121.03 23.933-27.469 2.425 2.4767-22.06 28.833-4.2977-3.8413z" fill="url(#m)"/> <path transform="matrix(.99843 -.05599 .05599 .99843 -19.238 -265.89)" d="m29.168 378.2c-2.2584-1.3802-17.445-7.2278-17.282-5.5432s4.5774 9.1164 8.4778 12.717c4.2389 3.9128 11.738 8.8038 14.021 9.1299s5.5432-9.9451 2.6086-11.738-5.5672-3.1848-7.8256-4.565z" fill="url(#l)"/> <path transform="matrix(.99843 -.05599 .05599 .99843 -19.238 -265.89)" d="m34.576 381.19s3.4585 1.1528 5.303 7.6086 4.6113 9.9143 1.8445 8.992-18.215-7.6086-14.987-11.067 2.3056-8.7615 7.8392-5.5336z" fill="url(#k)"/> <path transform="matrix(.99843 -.05599 .05599 .99843 -19.238 -265.89)" d="m19.167 381.84s13.369-1.6303 16.793 5.2171 7.5792 12.796 5.1337 12.633-20.948-11.98-21.926-17.85z" fill="url(#j)"/> </g> </svg>